<mxfile host="app.diagrams.net" agent="Mozilla/5.0 (Windows NT 10.0; Win64; x64) AppleWebKit/537.36 (KHTML, like Gecko) Chrome/134.0.0.0 Safari/537.36" version="26.1.0">
  <diagram name="Page-1" id="VDsmp9Ex4F8U1UNaEQhH">
    <mxGraphModel dx="900" dy="931" grid="0" gridSize="10" guides="1" tooltips="1" connect="1" arrows="1" fold="1" page="0" pageScale="1" pageWidth="850" pageHeight="1100" math="0" shadow="0">
      <root>
        <mxCell id="0" />
        <mxCell id="1" parent="0" />
        <mxCell id="hVhLU8-apy723vky3uoX-127" value="" style="shape=table;startSize=0;container=1;collapsible=0;childLayout=tableLayout;" parent="1" vertex="1">
          <mxGeometry x="-290" y="-242" width="451.69" height="239" as="geometry" />
        </mxCell>
        <mxCell id="hVhLU8-apy723vky3uoX-128" value="" style="shape=tableRow;horizontal=0;startSize=0;swimlaneHead=0;swimlaneBody=0;strokeColor=inherit;top=0;left=0;bottom=0;right=0;collapsible=0;dropTarget=0;fillColor=none;points=[[0,0.5],[1,0.5]];portConstraint=eastwest;" parent="hVhLU8-apy723vky3uoX-127" vertex="1">
          <mxGeometry width="451.69" height="67" as="geometry" />
        </mxCell>
        <mxCell id="hVhLU8-apy723vky3uoX-129" value="green spaces" style="shape=partialRectangle;html=1;whiteSpace=wrap;connectable=0;strokeColor=inherit;overflow=hidden;fillColor=none;top=0;left=0;bottom=0;right=0;pointerEvents=1;fontFamily=Lucida Console;" parent="hVhLU8-apy723vky3uoX-128" vertex="1">
          <mxGeometry width="123" height="67" as="geometry">
            <mxRectangle width="123" height="67" as="alternateBounds" />
          </mxGeometry>
        </mxCell>
        <mxCell id="hVhLU8-apy723vky3uoX-130" value="" style="shape=partialRectangle;html=1;whiteSpace=wrap;connectable=0;strokeColor=inherit;overflow=hidden;fillColor=none;top=0;left=0;bottom=0;right=0;pointerEvents=1;fontFamily=Lucida Console;" parent="hVhLU8-apy723vky3uoX-128" vertex="1">
          <mxGeometry x="123" width="191" height="67" as="geometry">
            <mxRectangle width="191" height="67" as="alternateBounds" />
          </mxGeometry>
        </mxCell>
        <mxCell id="hVhLU8-apy723vky3uoX-131" value="" style="shape=partialRectangle;html=1;whiteSpace=wrap;connectable=0;strokeColor=inherit;overflow=hidden;fillColor=none;top=0;left=0;bottom=0;right=0;pointerEvents=1;fontFamily=Lucida Console;" parent="hVhLU8-apy723vky3uoX-128" vertex="1">
          <mxGeometry x="314" width="138" height="67" as="geometry">
            <mxRectangle width="138" height="67" as="alternateBounds" />
          </mxGeometry>
        </mxCell>
        <mxCell id="hVhLU8-apy723vky3uoX-132" value="" style="shape=tableRow;horizontal=0;startSize=0;swimlaneHead=0;swimlaneBody=0;strokeColor=inherit;top=0;left=0;bottom=0;right=0;collapsible=0;dropTarget=0;fillColor=none;points=[[0,0.5],[1,0.5]];portConstraint=eastwest;" parent="hVhLU8-apy723vky3uoX-127" vertex="1">
          <mxGeometry y="67" width="451.69" height="105" as="geometry" />
        </mxCell>
        <mxCell id="hVhLU8-apy723vky3uoX-133" value="work flexibility for parents" style="shape=partialRectangle;html=1;whiteSpace=wrap;connectable=0;strokeColor=inherit;overflow=hidden;fillColor=none;top=0;left=0;bottom=0;right=0;pointerEvents=1;fontFamily=Lucida Console;" parent="hVhLU8-apy723vky3uoX-132" vertex="1">
          <mxGeometry width="123" height="105" as="geometry">
            <mxRectangle width="123" height="105" as="alternateBounds" />
          </mxGeometry>
        </mxCell>
        <mxCell id="hVhLU8-apy723vky3uoX-134" value="Impacts of air pollution on children&#39;s health in Msia" style="shape=partialRectangle;html=1;whiteSpace=wrap;connectable=0;strokeColor=#d6b656;overflow=hidden;fillColor=#fff2cc;top=0;left=0;bottom=0;right=0;pointerEvents=1;fontFamily=Lucida Console;" parent="hVhLU8-apy723vky3uoX-132" vertex="1">
          <mxGeometry x="123" width="191" height="105" as="geometry">
            <mxRectangle width="191" height="105" as="alternateBounds" />
          </mxGeometry>
        </mxCell>
        <mxCell id="hVhLU8-apy723vky3uoX-135" value="education" style="shape=partialRectangle;html=1;whiteSpace=wrap;connectable=0;strokeColor=inherit;overflow=hidden;fillColor=none;top=0;left=0;bottom=0;right=0;pointerEvents=1;fontFamily=Lucida Console;" parent="hVhLU8-apy723vky3uoX-132" vertex="1">
          <mxGeometry x="314" width="138" height="105" as="geometry">
            <mxRectangle width="138" height="105" as="alternateBounds" />
          </mxGeometry>
        </mxCell>
        <mxCell id="hVhLU8-apy723vky3uoX-136" value="" style="shape=tableRow;horizontal=0;startSize=0;swimlaneHead=0;swimlaneBody=0;strokeColor=inherit;top=0;left=0;bottom=0;right=0;collapsible=0;dropTarget=0;fillColor=none;points=[[0,0.5],[1,0.5]];portConstraint=eastwest;" parent="hVhLU8-apy723vky3uoX-127" vertex="1">
          <mxGeometry y="172" width="451.69" height="67" as="geometry" />
        </mxCell>
        <mxCell id="hVhLU8-apy723vky3uoX-137" value="encouraging&amp;nbsp;" style="shape=partialRectangle;html=1;whiteSpace=wrap;connectable=0;strokeColor=inherit;overflow=hidden;fillColor=none;top=0;left=0;bottom=0;right=0;pointerEvents=1;fontFamily=Lucida Console;" parent="hVhLU8-apy723vky3uoX-136" vertex="1">
          <mxGeometry width="123" height="67" as="geometry">
            <mxRectangle width="123" height="67" as="alternateBounds" />
          </mxGeometry>
        </mxCell>
        <mxCell id="hVhLU8-apy723vky3uoX-138" value="medical cost" style="shape=partialRectangle;html=1;whiteSpace=wrap;connectable=0;strokeColor=inherit;overflow=hidden;fillColor=none;top=0;left=0;bottom=0;right=0;pointerEvents=1;fontFamily=Lucida Console;" parent="hVhLU8-apy723vky3uoX-136" vertex="1">
          <mxGeometry x="123" width="191" height="67" as="geometry">
            <mxRectangle width="191" height="67" as="alternateBounds" />
          </mxGeometry>
        </mxCell>
        <mxCell id="hVhLU8-apy723vky3uoX-139" value="working parents" style="shape=partialRectangle;html=1;whiteSpace=wrap;connectable=0;strokeColor=inherit;overflow=hidden;fillColor=none;top=0;left=0;bottom=0;right=0;pointerEvents=1;fontFamily=Lucida Console;" parent="hVhLU8-apy723vky3uoX-136" vertex="1">
          <mxGeometry x="314" width="138" height="67" as="geometry">
            <mxRectangle width="138" height="67" as="alternateBounds" />
          </mxGeometry>
        </mxCell>
      </root>
    </mxGraphModel>
  </diagram>
</mxfile>
